<svg xmlns="http://www.w3.org/2000/svg" data-name="Layer 1" viewBox="0 0 512 512" id="face-with-raised-eyebrow"><path fill="#2c2b2d" d="M416.51367,95.48633A227.00061,227.00061,0,0,0,95.48633,416.51367,227.00061,227.00061,0,0,0,416.51367,95.48633ZM256,468C139.10254,468,44,372.89746,44,256S139.10254,44,256,44s212,95.10254,212,212S372.89746,468,256,468Zm63-118.34766H193a7.5,7.5,0,0,0,0,15H319a7.5,7.5,0,0,0,0-15ZM218.5,214.5A35.5,35.5,0,1,0,183,250,35.53965,35.53965,0,0,0,218.5,214.5ZM183,235a20.5,20.5,0,1,1,20.5-20.5A20.52325,20.52325,0,0,1,183,235Zm151-56a35.5,35.5,0,1,0,35.5,35.5A35.53965,35.53965,0,0,0,334,179Zm0,56a20.5,20.5,0,1,1,20.5-20.5A20.52325,20.52325,0,0,1,334,235ZM155,169.53711a7.5157,7.5157,0,0,0,2.35449-.37891l39.51172-13.0625,16.541,6.09375a7.49956,7.49956,0,1,0,5.18554-14.07422l-19-7a7.49425,7.49425,0,0,0-4.94726-.084l-40.52832,13.39844-8.45606-.74805a7.4999,7.4999,0,0,0-1.32226,14.94141l10,.88476C154.55957,169.52734,154.7793,169.53711,155,169.53711ZM370.97461,108.792l-16-10a7.50659,7.50659,0,0,0-7.02051-.49316l-45,20a7.49988,7.49988,0,1,0,6.0918,13.707L350.4043,113.624l12.62109,7.88868a7.50011,7.50011,0,0,0,7.94922-12.72071Z"></path></svg>