<svg xmlns="http://www.w3.org/2000/svg" viewBox="0 0 24 24" id="unhappy"><g fill="#231f20" data-name="emoji"><path d="M12 2.5a9.49 9.49 0 1 0 9.47 9.5A9.5 9.5 0 0 0 12 2.5Zm0 18a8.49 8.49 0 1 1 8.47-8.5A8.49 8.49 0 0 1 12 20.47Z"></path><path d="M10.52 8.83a.5.5 0 0 0-1 0c0 .28-.44.59-1 .59s-1-.31-1-.59a.5.5 0 0 0-1 0 1.83 1.83 0 0 0 2 1.59 1.83 1.83 0 0 0 2-1.59zm6.48-.5a.5.5 0 0 0-.5.5c0 .28-.44.59-1 .59s-1-.31-1-.59a.5.5 0 0 0-1 0 1.83 1.83 0 0 0 2 1.59 1.83 1.83 0 0 0 2-1.59.5.5 0 0 0-.5-.5zm-3.3 7.18h-3.4a.5.5 0 0 0-.5.5.5.5 0 0 0 .5.5h3.4a.5.5 0 0 0 .5-.5.5.5 0 0 0-.5-.5z"></path></g></svg>